<mxfile host="app.diagrams.net" modified="2021-10-19T09:06:19.998Z" agent="5.0 (Macintosh; Intel Mac OS X 10_15_7) AppleWebKit/537.36 (KHTML, like Gecko) Chrome/94.0.4606.81 Safari/537.36" etag="O2BHV8rC2Pza605iCtBT" version="15.5.5" type="github">
  <diagram id="u2XBspSBkSbY5HJoleDj" name="Page-1">
    <mxGraphModel dx="988" dy="512" grid="1" gridSize="10" guides="1" tooltips="1" connect="1" arrows="1" fold="1" page="1" pageScale="1" pageWidth="827" pageHeight="1169" math="0" shadow="0">
      <root>
        <mxCell id="0" />
        <mxCell id="1" parent="0" />
        <mxCell id="3OXlTMtdG07-1SoMj4Mq-1" value="printMultiplcationTable" style="rounded=0;whiteSpace=wrap;html=1;" vertex="1" parent="1">
          <mxGeometry x="190" y="230" width="180" height="380" as="geometry" />
        </mxCell>
        <mxCell id="3OXlTMtdG07-1SoMj4Mq-2" value="checkNumValid" style="rounded=0;whiteSpace=wrap;html=1;" vertex="1" parent="1">
          <mxGeometry x="530" y="230" width="180" height="90" as="geometry" />
        </mxCell>
        <mxCell id="3OXlTMtdG07-1SoMj4Mq-3" value="checkNumRange" style="rounded=0;whiteSpace=wrap;html=1;" vertex="1" parent="1">
          <mxGeometry x="530" y="360" width="180" height="90" as="geometry" />
        </mxCell>
        <mxCell id="3OXlTMtdG07-1SoMj4Mq-4" value="printArrayTable" style="rounded=0;whiteSpace=wrap;html=1;" vertex="1" parent="1">
          <mxGeometry x="530" y="500" width="180" height="90" as="geometry" />
        </mxCell>
        <mxCell id="3OXlTMtdG07-1SoMj4Mq-5" value="" style="endArrow=classic;html=1;rounded=0;" edge="1" parent="1">
          <mxGeometry width="50" height="50" relative="1" as="geometry">
            <mxPoint x="400" y="280" as="sourcePoint" />
            <mxPoint x="510" y="280" as="targetPoint" />
          </mxGeometry>
        </mxCell>
        <mxCell id="3OXlTMtdG07-1SoMj4Mq-6" value="" style="endArrow=classic;html=1;rounded=0;" edge="1" parent="1">
          <mxGeometry width="50" height="50" relative="1" as="geometry">
            <mxPoint x="400" y="400" as="sourcePoint" />
            <mxPoint x="510" y="400" as="targetPoint" />
          </mxGeometry>
        </mxCell>
        <mxCell id="3OXlTMtdG07-1SoMj4Mq-7" value="" style="endArrow=classic;html=1;rounded=0;" edge="1" parent="1">
          <mxGeometry width="50" height="50" relative="1" as="geometry">
            <mxPoint x="400" y="520" as="sourcePoint" />
            <mxPoint x="510" y="520" as="targetPoint" />
          </mxGeometry>
        </mxCell>
        <mxCell id="3OXlTMtdG07-1SoMj4Mq-8" value="" style="endArrow=classic;html=1;rounded=0;" edge="1" parent="1">
          <mxGeometry width="50" height="50" relative="1" as="geometry">
            <mxPoint x="500" y="530" as="sourcePoint" />
            <mxPoint x="400" y="530" as="targetPoint" />
          </mxGeometry>
        </mxCell>
        <mxCell id="3OXlTMtdG07-1SoMj4Mq-9" value="" style="endArrow=classic;html=1;rounded=0;" edge="1" parent="1">
          <mxGeometry width="50" height="50" relative="1" as="geometry">
            <mxPoint x="500" y="410" as="sourcePoint" />
            <mxPoint x="400" y="410" as="targetPoint" />
          </mxGeometry>
        </mxCell>
        <mxCell id="3OXlTMtdG07-1SoMj4Mq-10" value="" style="endArrow=classic;html=1;rounded=0;" edge="1" parent="1">
          <mxGeometry width="50" height="50" relative="1" as="geometry">
            <mxPoint x="500" y="290" as="sourcePoint" />
            <mxPoint x="400" y="290" as="targetPoint" />
          </mxGeometry>
        </mxCell>
        <mxCell id="3OXlTMtdG07-1SoMj4Mq-11" value="startNum : int" style="text;html=1;strokeColor=none;fillColor=none;align=center;verticalAlign=middle;whiteSpace=wrap;rounded=0;" vertex="1" parent="1">
          <mxGeometry x="400" y="230" width="110" height="30" as="geometry" />
        </mxCell>
        <mxCell id="3OXlTMtdG07-1SoMj4Mq-12" value="endNum: int" style="text;html=1;strokeColor=none;fillColor=none;align=center;verticalAlign=middle;whiteSpace=wrap;rounded=0;" vertex="1" parent="1">
          <mxGeometry x="400" y="250" width="100" height="30" as="geometry" />
        </mxCell>
        <mxCell id="3OXlTMtdG07-1SoMj4Mq-13" value="startNum : int" style="text;html=1;strokeColor=none;fillColor=none;align=center;verticalAlign=middle;whiteSpace=wrap;rounded=0;" vertex="1" parent="1">
          <mxGeometry x="400" y="340" width="110" height="30" as="geometry" />
        </mxCell>
        <mxCell id="3OXlTMtdG07-1SoMj4Mq-14" value="endNum: int" style="text;html=1;strokeColor=none;fillColor=none;align=center;verticalAlign=middle;whiteSpace=wrap;rounded=0;" vertex="1" parent="1">
          <mxGeometry x="405" y="360" width="100" height="30" as="geometry" />
        </mxCell>
        <mxCell id="3OXlTMtdG07-1SoMj4Mq-15" value="valid : boolean" style="text;html=1;strokeColor=none;fillColor=none;align=center;verticalAlign=middle;whiteSpace=wrap;rounded=0;" vertex="1" parent="1">
          <mxGeometry x="414" y="290" width="86" height="30" as="geometry" />
        </mxCell>
        <mxCell id="3OXlTMtdG07-1SoMj4Mq-16" value="valid&amp;nbsp;: null" style="text;html=1;strokeColor=none;fillColor=none;align=center;verticalAlign=middle;whiteSpace=wrap;rounded=0;" vertex="1" parent="1">
          <mxGeometry x="407" y="310" width="86" height="30" as="geometry" />
        </mxCell>
        <mxCell id="3OXlTMtdG07-1SoMj4Mq-17" value="range: boolean" style="text;html=1;strokeColor=none;fillColor=none;align=center;verticalAlign=middle;whiteSpace=wrap;rounded=0;" vertex="1" parent="1">
          <mxGeometry x="414" y="405" width="86" height="30" as="geometry" />
        </mxCell>
        <mxCell id="3OXlTMtdG07-1SoMj4Mq-18" value="range: null" style="text;html=1;strokeColor=none;fillColor=none;align=center;verticalAlign=middle;whiteSpace=wrap;rounded=0;" vertex="1" parent="1">
          <mxGeometry x="400" y="420" width="100" height="30" as="geometry" />
        </mxCell>
        <mxCell id="3OXlTMtdG07-1SoMj4Mq-21" value="startNum : int" style="text;html=1;strokeColor=none;fillColor=none;align=center;verticalAlign=middle;whiteSpace=wrap;rounded=0;" vertex="1" parent="1">
          <mxGeometry x="395" y="470" width="110" height="30" as="geometry" />
        </mxCell>
        <mxCell id="3OXlTMtdG07-1SoMj4Mq-22" value="endNum: int" style="text;html=1;strokeColor=none;fillColor=none;align=center;verticalAlign=middle;whiteSpace=wrap;rounded=0;" vertex="1" parent="1">
          <mxGeometry x="400" y="490" width="100" height="30" as="geometry" />
        </mxCell>
        <mxCell id="3OXlTMtdG07-1SoMj4Mq-23" value="multiplyTable : Array[]&amp;nbsp;" style="text;html=1;strokeColor=none;fillColor=none;align=center;verticalAlign=middle;whiteSpace=wrap;rounded=0;" vertex="1" parent="1">
          <mxGeometry x="385" y="530" width="130" height="30" as="geometry" />
        </mxCell>
        <mxCell id="3OXlTMtdG07-1SoMj4Mq-24" value="" style="endArrow=classic;html=1;rounded=0;" edge="1" parent="1">
          <mxGeometry width="50" height="50" relative="1" as="geometry">
            <mxPoint x="60" y="320" as="sourcePoint" />
            <mxPoint x="160" y="320" as="targetPoint" />
          </mxGeometry>
        </mxCell>
        <mxCell id="3OXlTMtdG07-1SoMj4Mq-25" value="startNum : int" style="text;html=1;strokeColor=none;fillColor=none;align=center;verticalAlign=middle;whiteSpace=wrap;rounded=0;" vertex="1" parent="1">
          <mxGeometry x="70" y="260" width="110" height="30" as="geometry" />
        </mxCell>
        <mxCell id="3OXlTMtdG07-1SoMj4Mq-26" value="endNum: int" style="text;html=1;strokeColor=none;fillColor=none;align=center;verticalAlign=middle;whiteSpace=wrap;rounded=0;" vertex="1" parent="1">
          <mxGeometry x="70" y="280" width="100" height="30" as="geometry" />
        </mxCell>
        <mxCell id="3OXlTMtdG07-1SoMj4Mq-27" value="" style="endArrow=classic;html=1;rounded=0;" edge="1" parent="1">
          <mxGeometry width="50" height="50" relative="1" as="geometry">
            <mxPoint x="160" y="370" as="sourcePoint" />
            <mxPoint x="70" y="370" as="targetPoint" />
          </mxGeometry>
        </mxCell>
        <mxCell id="3OXlTMtdG07-1SoMj4Mq-28" value="table: string" style="text;html=1;strokeColor=none;fillColor=none;align=center;verticalAlign=middle;whiteSpace=wrap;rounded=0;" vertex="1" parent="1">
          <mxGeometry x="70" y="375" width="90" height="30" as="geometry" />
        </mxCell>
        <mxCell id="3OXlTMtdG07-1SoMj4Mq-29" value="exception: null" style="text;html=1;strokeColor=none;fillColor=none;align=center;verticalAlign=middle;whiteSpace=wrap;rounded=0;" vertex="1" parent="1">
          <mxGeometry x="60" y="405" width="80" height="30" as="geometry" />
        </mxCell>
        <mxCell id="3OXlTMtdG07-1SoMj4Mq-30" value="printStringTable" style="rounded=0;whiteSpace=wrap;html=1;" vertex="1" parent="1">
          <mxGeometry x="530" y="610" width="180" height="90" as="geometry" />
        </mxCell>
        <mxCell id="3OXlTMtdG07-1SoMj4Mq-32" value="" style="endArrow=classic;html=1;rounded=0;" edge="1" parent="1">
          <mxGeometry width="50" height="50" relative="1" as="geometry">
            <mxPoint x="397.5" y="640" as="sourcePoint" />
            <mxPoint x="507.5" y="640" as="targetPoint" />
          </mxGeometry>
        </mxCell>
        <mxCell id="3OXlTMtdG07-1SoMj4Mq-33" value="" style="endArrow=classic;html=1;rounded=0;" edge="1" parent="1">
          <mxGeometry width="50" height="50" relative="1" as="geometry">
            <mxPoint x="497.5" y="650" as="sourcePoint" />
            <mxPoint x="397.5" y="650" as="targetPoint" />
          </mxGeometry>
        </mxCell>
        <mxCell id="3OXlTMtdG07-1SoMj4Mq-36" value="multiplyTable : Array[]&amp;nbsp;" style="text;html=1;strokeColor=none;fillColor=none;align=center;verticalAlign=middle;whiteSpace=wrap;rounded=0;" vertex="1" parent="1">
          <mxGeometry x="385" y="600" width="130" height="30" as="geometry" />
        </mxCell>
        <mxCell id="3OXlTMtdG07-1SoMj4Mq-37" value="Table : Srting" style="text;html=1;strokeColor=none;fillColor=none;align=center;verticalAlign=middle;whiteSpace=wrap;rounded=0;" vertex="1" parent="1">
          <mxGeometry x="385" y="650" width="130" height="30" as="geometry" />
        </mxCell>
      </root>
    </mxGraphModel>
  </diagram>
</mxfile>
